<mxfile host="Electron" modified="2024-03-13T11:11:54.478Z" agent="Mozilla/5.0 (Macintosh; Intel Mac OS X 10_15_7) AppleWebKit/537.36 (KHTML, like Gecko) draw.io/24.0.4 Chrome/120.0.6099.109 Electron/28.1.0 Safari/537.36" etag="Rnn1Cvtrlgw1SToiXBDJ" version="24.0.4" type="device">
  <diagram name="Page-1" id="wv4Ve9XhU9uI4jX8m3nt">
    <mxGraphModel dx="909" dy="1790" grid="1" gridSize="10" guides="1" tooltips="1" connect="1" arrows="1" fold="1" page="1" pageScale="1" pageWidth="827" pageHeight="1169" math="0" shadow="0">
      <root>
        <mxCell id="0" />
        <mxCell id="1" parent="0" />
        <mxCell id="hMdCMSUUUF6F1jB6uKyC-23" value="weather" style="shape=module;align=left;spacingLeft=20;align=center;verticalAlign=top;whiteSpace=wrap;html=1;fontSize=16;fontFamily=Courier New;" parent="1" vertex="1">
          <mxGeometry x="430" y="63.4" width="1210" height="1466.6" as="geometry" />
        </mxCell>
        <mxCell id="hMdCMSUUUF6F1jB6uKyC-36" value="" style="group;fillColor=#fff2cc;strokeColor=#d6b656;" parent="1" vertex="1" connectable="0">
          <mxGeometry x="1280" y="570" width="310" height="80" as="geometry" />
        </mxCell>
        <mxCell id="hMdCMSUUUF6F1jB6uKyC-37" value="&lt;pre&gt;&lt;span style=&quot;font-size: 12px; font-family: &amp;quot;Courier New&amp;quot;; background-color: initial; white-space: normal;&quot;&gt;&lt;br&gt;&lt;/span&gt;&lt;/pre&gt;&lt;pre&gt;&lt;span style=&quot;font-size: 12px; font-family: &amp;quot;Courier New&amp;quot;; background-color: initial; white-space: normal;&quot;&gt;{API} : Flow&amp;lt;Result&amp;lt;Float&amp;gt;&amp;gt;&lt;/span&gt;&lt;br&gt;&lt;/pre&gt;" style="rounded=0;whiteSpace=wrap;html=1;fontSize=16;fillColor=#fff2cc;strokeColor=#d6b656;" parent="hMdCMSUUUF6F1jB6uKyC-36" vertex="1">
          <mxGeometry width="310" height="80" as="geometry" />
        </mxCell>
        <mxCell id="hMdCMSUUUF6F1jB6uKyC-38" value="GetCurrentHourTemperatureUseCase" style="text;html=1;strokeColor=none;fillColor=none;align=center;verticalAlign=middle;whiteSpace=wrap;rounded=0;fontSize=16;fontFamily=Courier New;" parent="hMdCMSUUUF6F1jB6uKyC-36" vertex="1">
          <mxGeometry x="77.50000000000001" width="155.00000000000003" height="30" as="geometry" />
        </mxCell>
        <mxCell id="hMdCMSUUUF6F1jB6uKyC-42" value="" style="group" parent="1" vertex="1" connectable="0">
          <mxGeometry x="595" y="170" width="270" height="60" as="geometry" />
        </mxCell>
        <mxCell id="hMdCMSUUUF6F1jB6uKyC-40" value="" style="rounded=0;whiteSpace=wrap;html=1;fontSize=16;fillColor=#f8cecc;strokeColor=#b85450;" parent="hMdCMSUUUF6F1jB6uKyC-42" vertex="1">
          <mxGeometry width="270" height="60" as="geometry" />
        </mxCell>
        <mxCell id="hMdCMSUUUF6F1jB6uKyC-41" value="HourlyWeatherEntity" style="text;html=1;strokeColor=none;fillColor=none;align=center;verticalAlign=middle;whiteSpace=wrap;rounded=0;fontSize=16;fontFamily=Courier New;" parent="hMdCMSUUUF6F1jB6uKyC-42" vertex="1">
          <mxGeometry x="67.5" width="135" height="30" as="geometry" />
        </mxCell>
        <mxCell id="hMdCMSUUUF6F1jB6uKyC-50" value="" style="group" parent="1" vertex="1" connectable="0">
          <mxGeometry x="150" y="400" width="120" height="100" as="geometry" />
        </mxCell>
        <mxCell id="hMdCMSUUUF6F1jB6uKyC-19" value="" style="shape=folder;fontStyle=1;spacingTop=10;tabWidth=40;tabHeight=14;tabPosition=left;html=1;whiteSpace=wrap;fontSize=16;fillColor=#d5e8d4;strokeColor=#82b366;" parent="hMdCMSUUUF6F1jB6uKyC-50" vertex="1">
          <mxGeometry width="120" height="100" as="geometry" />
        </mxCell>
        <mxCell id="hMdCMSUUUF6F1jB6uKyC-20" value="&lt;font face=&quot;Courier New&quot;&gt;dataprovider&lt;/font&gt;" style="text;html=1;strokeColor=none;fillColor=none;align=center;verticalAlign=middle;whiteSpace=wrap;rounded=0;fontSize=16;" parent="hMdCMSUUUF6F1jB6uKyC-50" vertex="1">
          <mxGeometry x="30" y="70" width="60" height="30" as="geometry" />
        </mxCell>
        <mxCell id="hMdCMSUUUF6F1jB6uKyC-51" value="" style="group" parent="1" vertex="1" connectable="0">
          <mxGeometry x="150" y="280" width="120" height="100" as="geometry" />
        </mxCell>
        <mxCell id="hMdCMSUUUF6F1jB6uKyC-12" value="" style="shape=folder;fontStyle=1;spacingTop=10;tabWidth=40;tabHeight=14;tabPosition=left;html=1;whiteSpace=wrap;fontSize=16;fillColor=#fff2cc;strokeColor=#d6b656;" parent="hMdCMSUUUF6F1jB6uKyC-51" vertex="1">
          <mxGeometry width="120" height="100" as="geometry" />
        </mxCell>
        <mxCell id="hMdCMSUUUF6F1jB6uKyC-13" value="&lt;font face=&quot;Courier New&quot;&gt;usecase&lt;/font&gt;" style="text;html=1;strokeColor=none;fillColor=none;align=center;verticalAlign=middle;whiteSpace=wrap;rounded=0;fontSize=16;" parent="hMdCMSUUUF6F1jB6uKyC-51" vertex="1">
          <mxGeometry x="30" y="70" width="60" height="30" as="geometry" />
        </mxCell>
        <mxCell id="hMdCMSUUUF6F1jB6uKyC-52" value="" style="group" parent="1" vertex="1" connectable="0">
          <mxGeometry x="150" y="160" width="120" height="100" as="geometry" />
        </mxCell>
        <mxCell id="hMdCMSUUUF6F1jB6uKyC-17" value="" style="shape=folder;fontStyle=1;spacingTop=10;tabWidth=40;tabHeight=14;tabPosition=left;html=1;whiteSpace=wrap;fontSize=16;fillColor=#f8cecc;strokeColor=#b85450;" parent="hMdCMSUUUF6F1jB6uKyC-52" vertex="1">
          <mxGeometry width="120" height="100" as="geometry" />
        </mxCell>
        <mxCell id="hMdCMSUUUF6F1jB6uKyC-18" value="&lt;font face=&quot;Courier New&quot;&gt;entity&lt;br&gt;&lt;/font&gt;" style="text;html=1;strokeColor=none;fillColor=none;align=center;verticalAlign=middle;whiteSpace=wrap;rounded=0;fontSize=16;" parent="hMdCMSUUUF6F1jB6uKyC-52" vertex="1">
          <mxGeometry x="30" y="70" width="60" height="30" as="geometry" />
        </mxCell>
        <mxCell id="hMdCMSUUUF6F1jB6uKyC-53" value="" style="edgeStyle=none;curved=1;rounded=0;orthogonalLoop=1;jettySize=auto;html=1;fontSize=12;startSize=8;endSize=8;endArrow=block;endFill=0;entryX=0.5;entryY=0;entryDx=0;entryDy=0;" parent="1" source="hMdCMSUUUF6F1jB6uKyC-40" target="R9Sax285LrgI6wB76GsC-14" edge="1">
          <mxGeometry relative="1" as="geometry">
            <mxPoint x="734.0909090909092" y="310" as="targetPoint" />
          </mxGeometry>
        </mxCell>
        <mxCell id="MzsrqZj2Vyv2zfBKMK9l-8" value=".local" style="text;html=1;strokeColor=none;fillColor=none;align=center;verticalAlign=middle;whiteSpace=wrap;rounded=0;fontSize=16;fontFamily=Courier New;" parent="1" vertex="1">
          <mxGeometry x="280" y="480" width="60" height="30" as="geometry" />
        </mxCell>
        <mxCell id="MzsrqZj2Vyv2zfBKMK9l-9" value=".remote" style="text;html=1;strokeColor=none;fillColor=none;align=center;verticalAlign=middle;whiteSpace=wrap;rounded=0;fontSize=16;fontFamily=Courier New;" parent="1" vertex="1">
          <mxGeometry x="280" y="450" width="60" height="40" as="geometry" />
        </mxCell>
        <mxCell id="MzsrqZj2Vyv2zfBKMK9l-13" value="" style="group;fontSize=16;" parent="1" vertex="1" connectable="0">
          <mxGeometry x="1150" y="723.4" width="250" height="90" as="geometry" />
        </mxCell>
        <mxCell id="MzsrqZj2Vyv2zfBKMK9l-14" value="" style="rounded=0;whiteSpace=wrap;html=1;fontSize=16;fillColor=#fff2cc;strokeColor=#d6b656;" parent="MzsrqZj2Vyv2zfBKMK9l-13" vertex="1">
          <mxGeometry width="250.00000000000003" height="90" as="geometry" />
        </mxCell>
        <mxCell id="MzsrqZj2Vyv2zfBKMK9l-15" value="&lt;p style=&quot;border-color: var(--border-color); font-family: Helvetica; font-size: 12px; margin: 4px 0px 0px;&quot;&gt;&lt;font style=&quot;border-color: var(--border-color);&quot; face=&quot;Courier New&quot;&gt;WeatherGateway&lt;/font&gt;&lt;/p&gt;&lt;hr style=&quot;border-color: var(--border-color); font-family: Helvetica; text-align: left; font-size: 11px;&quot; size=&quot;1&quot;&gt;&lt;p style=&quot;border-color: var(--border-color); font-family: Helvetica; font-size: 12px; text-align: left; margin: 0px 0px 0px 4px;&quot;&gt;&lt;/p&gt;&lt;p style=&quot;border-color: var(--border-color); font-family: Helvetica; font-size: 12px; text-align: left; margin: 0px 0px 0px 4px;&quot;&gt;&lt;font style=&quot;border-color: var(--border-color);&quot; face=&quot;Courier New&quot;&gt;+ hourlies: Flow&amp;lt;Result&amp;lt;List&amp;lt;HourlyWeather&amp;gt;&amp;gt;&amp;gt;&lt;/font&gt;&lt;/p&gt;" style="text;html=1;strokeColor=none;fillColor=none;align=center;verticalAlign=middle;whiteSpace=wrap;rounded=0;fontSize=16;fontFamily=Courier New;" parent="MzsrqZj2Vyv2zfBKMK9l-13" vertex="1">
          <mxGeometry y="15" width="239.58333333333334" height="45" as="geometry" />
        </mxCell>
        <mxCell id="MzsrqZj2Vyv2zfBKMK9l-18" value="" style="edgeStyle=none;curved=1;rounded=0;orthogonalLoop=1;jettySize=auto;html=1;fontSize=12;startSize=8;endSize=8;entryX=0.5;entryY=0;entryDx=0;entryDy=0;" parent="1" source="hMdCMSUUUF6F1jB6uKyC-37" target="MzsrqZj2Vyv2zfBKMK9l-14" edge="1">
          <mxGeometry relative="1" as="geometry" />
        </mxCell>
        <mxCell id="MzsrqZj2Vyv2zfBKMK9l-19" value="uses" style="edgeLabel;html=1;align=center;verticalAlign=middle;resizable=0;points=[];fontSize=16;" parent="MzsrqZj2Vyv2zfBKMK9l-18" vertex="1" connectable="0">
          <mxGeometry x="-0.4157" y="1" relative="1" as="geometry">
            <mxPoint as="offset" />
          </mxGeometry>
        </mxCell>
        <mxCell id="MzsrqZj2Vyv2zfBKMK9l-21" value="" style="edgeStyle=none;curved=1;rounded=0;orthogonalLoop=1;jettySize=auto;html=1;fontSize=12;startSize=8;endSize=8;entryX=0.5;entryY=1;entryDx=0;entryDy=0;endArrow=block;endFill=0;exitX=0.5;exitY=0;exitDx=0;exitDy=0;" parent="1" source="MzsrqZj2Vyv2zfBKMK9l-23" target="MzsrqZj2Vyv2zfBKMK9l-14" edge="1">
          <mxGeometry relative="1" as="geometry">
            <mxPoint x="815" y="641.6319078947369" as="sourcePoint" />
            <mxPoint x="849.9999999999998" y="503.4" as="targetPoint" />
          </mxGeometry>
        </mxCell>
        <mxCell id="m-WLtfDjDTpF_uiA7z5S-4" value="" style="edgeStyle=none;curved=1;rounded=0;orthogonalLoop=1;jettySize=auto;html=1;fontSize=12;startSize=8;endSize=8;" parent="1" source="MzsrqZj2Vyv2zfBKMK9l-23" target="m-WLtfDjDTpF_uiA7z5S-3" edge="1">
          <mxGeometry relative="1" as="geometry" />
        </mxCell>
        <mxCell id="m-WLtfDjDTpF_uiA7z5S-5" value="uses" style="edgeLabel;html=1;align=center;verticalAlign=middle;resizable=0;points=[];fontSize=16;" parent="m-WLtfDjDTpF_uiA7z5S-4" vertex="1" connectable="0">
          <mxGeometry x="-0.45" relative="1" as="geometry">
            <mxPoint as="offset" />
          </mxGeometry>
        </mxCell>
        <mxCell id="MzsrqZj2Vyv2zfBKMK9l-23" value="&lt;p style=&quot;margin:0px;margin-top:4px;text-align:center;&quot;&gt;&lt;font face=&quot;Courier New&quot;&gt;WeatherRepository&lt;br&gt;&lt;/font&gt;&lt;/p&gt;&lt;p style=&quot;margin: 4px 0px 0px; text-align: center; font-size: 11px;&quot;&gt;&lt;font face=&quot;Courier New&quot; style=&quot;font-size: 11px;&quot;&gt;(@root)&lt;/font&gt;&lt;/p&gt;&lt;hr size=&quot;1&quot; style=&quot;font-size: 11px;&quot;&gt;&lt;p style=&quot;margin:0px;margin-left:4px;&quot;&gt;&lt;/p&gt;&lt;p style=&quot;margin:0px;margin-left:4px;&quot;&gt;&lt;font face=&quot;Courier New&quot;&gt;+ hourlies: Flow&amp;lt;Result&amp;lt;List&amp;lt;HourlyWeather&amp;gt;&amp;gt;&amp;gt;&lt;/font&gt;&lt;br&gt;&lt;/p&gt;" style="verticalAlign=top;align=left;overflow=fill;fontSize=12;fontFamily=Helvetica;html=1;whiteSpace=wrap;fillColor=#d5e8d4;strokeColor=#82b366;" parent="1" vertex="1">
          <mxGeometry x="542.86" y="903.4" width="247.14" height="90" as="geometry" />
        </mxCell>
        <mxCell id="MzsrqZj2Vyv2zfBKMK9l-28" value="outre ses propriétés, l&#39;entity doit proposer des méthodes de traitement des infos" style="shape=note;strokeWidth=2;fontSize=11;size=20;whiteSpace=wrap;html=1;fillColor=#f8cecc;strokeColor=#b85450;fontFamily=Courier New;" parent="1" vertex="1">
          <mxGeometry x="510" y="360" width="110" height="90" as="geometry" />
        </mxCell>
        <mxCell id="G27tqEyoBf-AfbN_Fk1x-1" value="ne pas utiliser de verbes en rapport avec le dataproviding, comme &#39;fetch&#39; ou &#39;call&#39;. A&#39; la place CRUD + data flow" style="shape=note;strokeWidth=2;fontSize=11;size=20;whiteSpace=wrap;html=1;fillColor=#fff2cc;strokeColor=#d6b656;fontColor=#666600;fontFamily=Courier New;" parent="1" vertex="1">
          <mxGeometry x="1370" y="800" width="130" height="100" as="geometry" />
        </mxCell>
        <mxCell id="9uqEFR3WwEUxAwHJzLDd-1" value="app" style="shape=module;align=left;spacingLeft=20;align=center;verticalAlign=top;whiteSpace=wrap;html=1;fontSize=16;fontFamily=Courier New;" parent="1" vertex="1">
          <mxGeometry x="1790" y="98.4" width="1570" height="1151.6" as="geometry" />
        </mxCell>
        <mxCell id="R9Sax285LrgI6wB76GsC-24" style="edgeStyle=none;curved=1;rounded=0;orthogonalLoop=1;jettySize=auto;html=1;exitX=1;exitY=0.5;exitDx=0;exitDy=0;fontSize=12;startSize=8;endSize=8;entryX=0;entryY=0.5;entryDx=0;entryDy=0;" parent="1" source="c7AoepRtp2JlIjNg5JvS-3" target="R9Sax285LrgI6wB76GsC-22" edge="1">
          <mxGeometry relative="1" as="geometry">
            <mxPoint x="835" y="1177.5" as="sourcePoint" />
          </mxGeometry>
        </mxCell>
        <mxCell id="R9Sax285LrgI6wB76GsC-26" value="uses" style="edgeLabel;html=1;align=center;verticalAlign=middle;resizable=0;points=[];fontSize=16;" parent="R9Sax285LrgI6wB76GsC-24" vertex="1" connectable="0">
          <mxGeometry x="-0.0501" y="-1" relative="1" as="geometry">
            <mxPoint as="offset" />
          </mxGeometry>
        </mxCell>
        <mxCell id="m-WLtfDjDTpF_uiA7z5S-3" value="&lt;p style=&quot;margin:0px;margin-top:4px;text-align:center;&quot;&gt;&lt;font face=&quot;Courier New&quot;&gt;WeatherRemoteDataSource&lt;br&gt;&lt;/font&gt;&lt;/p&gt;&lt;p style=&quot;margin: 4px 0px 0px; text-align: center; font-size: 11px;&quot;&gt;&lt;font face=&quot;Courier New&quot; style=&quot;font-size: 11px;&quot;&gt;(.remote)&lt;/font&gt;&lt;/p&gt;&lt;hr size=&quot;1&quot; style=&quot;font-size: 11px;&quot;&gt;&lt;p style=&quot;margin:0px;margin-left:4px;&quot;&gt;&lt;/p&gt;&lt;p style=&quot;margin:0px;margin-left:4px;&quot;&gt;&lt;font face=&quot;Courier New&quot;&gt;+ &lt;i&gt;suspend&lt;/i&gt;&amp;nbsp;&lt;/font&gt;&lt;span style=&quot;background-color: initial;&quot;&gt;&lt;font face=&quot;Courier New&quot;&gt;fetchHourlies(): Result&amp;lt;List&amp;lt;HourlyWeather&amp;gt;&amp;gt;&lt;/font&gt;&lt;/span&gt;&lt;/p&gt;" style="verticalAlign=top;align=left;overflow=fill;fontSize=12;fontFamily=Helvetica;html=1;whiteSpace=wrap;fillColor=#d5e8d4;strokeColor=#82b366;" parent="1" vertex="1">
          <mxGeometry x="500" y="1053.4" width="320" height="110" as="geometry" />
        </mxCell>
        <mxCell id="Qd4zdGmGENgGfocE7Ap7-1" value="" style="edgeStyle=none;curved=1;rounded=0;orthogonalLoop=1;jettySize=auto;html=1;fontSize=12;startSize=8;endSize=8;entryX=0.5;entryY=1;entryDx=0;entryDy=0;" parent="1" source="m-WLtfDjDTpF_uiA7z5S-6" target="c7AoepRtp2JlIjNg5JvS-3" edge="1">
          <mxGeometry relative="1" as="geometry" />
        </mxCell>
        <mxCell id="Qd4zdGmGENgGfocE7Ap7-2" value="provides" style="edgeLabel;html=1;align=center;verticalAlign=middle;resizable=0;points=[];fontSize=16;" parent="Qd4zdGmGENgGfocE7Ap7-1" vertex="1" connectable="0">
          <mxGeometry x="-0.1556" y="3" relative="1" as="geometry">
            <mxPoint as="offset" />
          </mxGeometry>
        </mxCell>
        <mxCell id="m-WLtfDjDTpF_uiA7z5S-6" value="&lt;p style=&quot;margin:0px;margin-top:4px;text-align:center;&quot;&gt;&lt;font face=&quot;Courier New&quot;&gt;RetrofitDataSourceModule&lt;br&gt;&lt;/font&gt;&lt;/p&gt;&lt;p style=&quot;margin: 4px 0px 0px; text-align: center; font-size: 11px;&quot;&gt;&lt;font face=&quot;Courier New&quot; style=&quot;font-size: 11px;&quot;&gt;(.remote.api)&lt;/font&gt;&lt;/p&gt;&lt;hr size=&quot;1&quot; style=&quot;font-size: 11px;&quot;&gt;&lt;p style=&quot;margin:0px;margin-left:4px;&quot;&gt;&lt;/p&gt;&lt;p style=&quot;margin:0px;margin-left:4px;&quot;&gt;&lt;font face=&quot;Courier New&quot;&gt;&lt;br&gt;&lt;/font&gt;&lt;/p&gt;&lt;p style=&quot;margin:0px;margin-left:4px;&quot;&gt;&lt;font face=&quot;Courier New&quot;&gt;+ providesWeatherApi(Retrofit.Builder) : WeatherApi&lt;/font&gt;&lt;/p&gt;&lt;p style=&quot;margin:0px;margin-left:4px;&quot;&gt;&lt;font face=&quot;Courier New&quot;&gt;&lt;br&gt;&lt;/font&gt;&lt;/p&gt;&lt;p style=&quot;margin:0px;margin-left:4px;&quot;&gt;&lt;font face=&quot;Courier New&quot;&gt;&lt;br&gt;&lt;/font&gt;&lt;/p&gt;" style="verticalAlign=top;align=left;overflow=fill;fontSize=12;fontFamily=Helvetica;html=1;whiteSpace=wrap;fillColor=#d5e8d4;strokeColor=#82b366;" parent="1" vertex="1">
          <mxGeometry x="890" y="1370" width="310" height="120" as="geometry" />
        </mxCell>
        <mxCell id="m-WLtfDjDTpF_uiA7z5S-7" style="edgeStyle=none;curved=1;rounded=0;orthogonalLoop=1;jettySize=auto;html=1;exitX=0.5;exitY=1;exitDx=0;exitDy=0;fontSize=12;startSize=8;endSize=8;" parent="1" source="m-WLtfDjDTpF_uiA7z5S-6" target="m-WLtfDjDTpF_uiA7z5S-6" edge="1">
          <mxGeometry relative="1" as="geometry" />
        </mxCell>
        <mxCell id="m-WLtfDjDTpF_uiA7z5S-8" value="&lt;p style=&quot;margin:0px;margin-top:4px;text-align:center;&quot;&gt;&lt;font face=&quot;Courier New&quot;&gt;WeatherApi&lt;br&gt;&lt;/font&gt;&lt;/p&gt;&lt;p style=&quot;margin: 4px 0px 0px; text-align: center; font-size: 11px;&quot;&gt;&lt;font face=&quot;Courier New&quot; style=&quot;font-size: 11px;&quot;&gt;(.remote.api)&lt;/font&gt;&lt;/p&gt;&lt;hr size=&quot;1&quot; style=&quot;font-size: 11px;&quot;&gt;&lt;p style=&quot;margin:0px;margin-left:4px;&quot;&gt;&lt;/p&gt;&lt;p style=&quot;margin:0px;margin-left:4px;&quot;&gt;&lt;font face=&quot;Courier New&quot;&gt;auto généré par OpenApi generator&lt;/font&gt;&lt;/p&gt;&lt;p style=&quot;margin:0px;margin-left:4px;&quot;&gt;&lt;font face=&quot;Courier New&quot;&gt;&lt;br&gt;&lt;/font&gt;&lt;/p&gt;&lt;p style=&quot;margin:0px;margin-left:4px;&quot;&gt;&lt;font face=&quot;Courier New&quot;&gt;+&amp;nbsp;&lt;i style=&quot;border-color: var(--border-color);&quot;&gt;suspend&lt;/i&gt;&amp;nbsp;oneCall(): Response&amp;lt;OneCall200ResponseDto&amp;gt;&lt;/font&gt;&lt;font face=&quot;Courier New&quot;&gt;&lt;br&gt;&lt;/font&gt;&lt;/p&gt;" style="verticalAlign=top;align=left;overflow=fill;fontSize=12;fontFamily=Helvetica;html=1;whiteSpace=wrap;fillColor=#d5e8d4;strokeColor=#82b366;" parent="1" vertex="1">
          <mxGeometry x="930" y="1016.6" width="240" height="146.6" as="geometry" />
        </mxCell>
        <mxCell id="R9Sax285LrgI6wB76GsC-12" value="" style="group;fontSize=16;fillColor=#f8cecc;strokeColor=#b85450;" parent="1" vertex="1" connectable="0">
          <mxGeometry x="610" y="290" width="240" height="120" as="geometry" />
        </mxCell>
        <mxCell id="R9Sax285LrgI6wB76GsC-13" value="" style="rounded=0;whiteSpace=wrap;html=1;fontSize=16;fillColor=#f8cecc;strokeColor=#b85450;" parent="R9Sax285LrgI6wB76GsC-12" vertex="1">
          <mxGeometry width="240" height="120" as="geometry" />
        </mxCell>
        <mxCell id="R9Sax285LrgI6wB76GsC-14" value="&lt;p style=&quot;border-color: var(--border-color); font-family: Helvetica; font-size: 12px; margin: 4px 0px 0px;&quot;&gt;&lt;font style=&quot;border-color: var(--border-color);&quot; face=&quot;Courier New&quot;&gt;HourlyWeather&lt;/font&gt;&lt;/p&gt;&lt;hr style=&quot;border-color: var(--border-color); font-family: Helvetica; text-align: left; font-size: 11px;&quot; size=&quot;1&quot;&gt;&lt;p style=&quot;border-color: var(--border-color); font-family: Helvetica; font-size: 12px; text-align: left; margin: 0px 0px 0px 4px;&quot;&gt;&lt;/p&gt;&lt;p style=&quot;border-color: var(--border-color); text-align: left; margin: 0px 0px 0px 4px;&quot;&gt;&lt;span style=&quot;font-size: 12px;&quot;&gt;+ timestamp: Instant&lt;/span&gt;&lt;/p&gt;&lt;p style=&quot;border-color: var(--border-color); text-align: left; margin: 0px 0px 0px 4px;&quot;&gt;&lt;span style=&quot;font-size: 12px;&quot;&gt;+ temperature: Float&lt;/span&gt;&lt;/p&gt;&lt;p style=&quot;border-color: var(--border-color); text-align: left; margin: 0px 0px 0px 4px;&quot;&gt;&lt;span style=&quot;font-size: 12px;&quot;&gt;+ windSpeed: Float&lt;/span&gt;&lt;/p&gt;&lt;p style=&quot;border-color: var(--border-color); text-align: left; margin: 0px 0px 0px 4px;&quot;&gt;&lt;span style=&quot;font-size: 12px;&quot;&gt;+ windDirection: Float&lt;/span&gt;&lt;/p&gt;" style="text;html=1;strokeColor=none;fillColor=none;align=center;verticalAlign=middle;whiteSpace=wrap;rounded=0;fontSize=16;fontFamily=Courier New;" parent="R9Sax285LrgI6wB76GsC-12" vertex="1">
          <mxGeometry width="240" height="120" as="geometry" />
        </mxCell>
        <mxCell id="R9Sax285LrgI6wB76GsC-15" value="&amp;lt;I&amp;gt;" style="text;html=1;strokeColor=none;fillColor=default;align=center;verticalAlign=middle;whiteSpace=wrap;rounded=0;fontSize=16;fontFamily=Courier New;" parent="1" vertex="1">
          <mxGeometry x="784.28" y="272" width="51.43" height="40" as="geometry" />
        </mxCell>
        <mxCell id="R9Sax285LrgI6wB76GsC-22" value="&lt;p style=&quot;margin:0px;margin-top:4px;text-align:center;&quot;&gt;&lt;font face=&quot;Courier New&quot;&gt;WeatherAssembler&lt;br&gt;&lt;/font&gt;&lt;/p&gt;&lt;p style=&quot;margin: 4px 0px 0px; text-align: center; font-size: 11px;&quot;&gt;&lt;font face=&quot;Courier New&quot; style=&quot;font-size: 11px;&quot;&gt;(.remote.dto)&lt;/font&gt;&lt;/p&gt;&lt;hr size=&quot;1&quot; style=&quot;font-size: 11px;&quot;&gt;&lt;p style=&quot;margin:0px;margin-left:4px;&quot;&gt;&lt;/p&gt;&lt;p style=&quot;margin:0px;margin-left:4px;&quot;&gt;&lt;font face=&quot;Courier New&quot;&gt;+&amp;nbsp;&lt;/font&gt;&lt;span style=&quot;background-color: initial;&quot;&gt;&lt;font face=&quot;Courier New&quot;&gt;createHourlies(dto: OneCall200ResponseDto?): List&amp;lt;HourlyWeather&amp;gt;&lt;/font&gt;&lt;/span&gt;&lt;/p&gt;" style="verticalAlign=top;align=left;overflow=fill;fontSize=12;fontFamily=Helvetica;html=1;whiteSpace=wrap;fillColor=#d5e8d4;strokeColor=#82b366;" parent="1" vertex="1">
          <mxGeometry x="895" y="1210" width="405" height="110" as="geometry" />
        </mxCell>
        <mxCell id="c7AoepRtp2JlIjNg5JvS-1" value="&lt;h1&gt;&lt;font style=&quot;font-size: 40px;&quot;&gt;Application graph&lt;/font&gt;&lt;/h1&gt;" style="text;html=1;strokeColor=none;fillColor=none;align=center;verticalAlign=middle;whiteSpace=wrap;rounded=0;fontSize=16;" parent="1" vertex="1">
          <mxGeometry x="1210" y="-1060" width="410" height="30" as="geometry" />
        </mxCell>
        <mxCell id="c7AoepRtp2JlIjNg5JvS-2" value="&amp;lt;I&amp;gt;" style="text;html=1;strokeColor=none;fillColor=default;align=center;verticalAlign=middle;whiteSpace=wrap;rounded=0;fontSize=16;fontFamily=Courier New;" parent="1" vertex="1">
          <mxGeometry x="758.5728571428571" y="1043.4" width="51.42857142857142" height="30" as="geometry" />
        </mxCell>
        <mxCell id="c7AoepRtp2JlIjNg5JvS-3" value="&lt;p style=&quot;margin:0px;margin-top:4px;text-align:center;&quot;&gt;&lt;font face=&quot;Courier New&quot;&gt;RetrofitDataSource&lt;br&gt;&lt;/font&gt;&lt;/p&gt;&lt;p style=&quot;margin: 4px 0px 0px; text-align: center; font-size: 11px;&quot;&gt;&lt;font face=&quot;Courier New&quot; style=&quot;font-size: 11px;&quot;&gt;(.remote.api)&lt;/font&gt;&lt;/p&gt;&lt;hr size=&quot;1&quot; style=&quot;font-size: 11px;&quot;&gt;&lt;p style=&quot;margin:0px;margin-left:4px;&quot;&gt;&lt;/p&gt;&lt;p style=&quot;margin:0px;margin-left:4px;&quot;&gt;&lt;font face=&quot;Courier New&quot;&gt;+ &lt;i&gt;suspend&lt;/i&gt;&amp;nbsp;&lt;/font&gt;&lt;span style=&quot;background-color: initial;&quot;&gt;&lt;font face=&quot;Courier New&quot;&gt;fetchHourlies(): Result&amp;lt;List&amp;lt;HourlyWeather&amp;gt;&amp;gt;&lt;/font&gt;&lt;/span&gt;&lt;/p&gt;" style="verticalAlign=top;align=left;overflow=fill;fontSize=12;fontFamily=Helvetica;html=1;whiteSpace=wrap;fillColor=#d5e8d4;strokeColor=#82b366;" parent="1" vertex="1">
          <mxGeometry x="500" y="1223.4" width="320" height="110" as="geometry" />
        </mxCell>
        <mxCell id="c7AoepRtp2JlIjNg5JvS-6" value="" style="edgeStyle=none;curved=1;rounded=0;orthogonalLoop=1;jettySize=auto;html=1;fontSize=12;startSize=8;endSize=8;entryX=0.5;entryY=1;entryDx=0;entryDy=0;endArrow=block;endFill=0;exitX=0.5;exitY=0;exitDx=0;exitDy=0;" parent="1" target="m-WLtfDjDTpF_uiA7z5S-3" edge="1">
          <mxGeometry relative="1" as="geometry">
            <mxPoint x="660" y="1223.4" as="sourcePoint" />
            <mxPoint x="709" y="1150.4" as="targetPoint" />
          </mxGeometry>
        </mxCell>
        <mxCell id="JqCgpAZH42IfPCFZP6Xf-1" value="&lt;font style=&quot;font-size: 15px;&quot;&gt;les entities sont accessibles partout au sein du module (= &quot;higher level&quot; )&lt;/font&gt;" style="shape=note;strokeWidth=2;fontSize=11;size=20;whiteSpace=wrap;html=1;fillColor=#f8cecc;strokeColor=#b85450;fontFamily=Courier New;" parent="1" vertex="1">
          <mxGeometry x="1340" y="130" width="170" height="140" as="geometry" />
        </mxCell>
        <mxCell id="JqCgpAZH42IfPCFZP6Xf-2" value="" style="rounded=0;orthogonalLoop=1;jettySize=auto;html=1;endArrow=halfCircle;endFill=0;endSize=15;strokeWidth=1;sketch=0;fontSize=12;curved=1;startSize=15;" parent="1" source="hMdCMSUUUF6F1jB6uKyC-37" edge="1">
          <mxGeometry relative="1" as="geometry">
            <mxPoint x="1780" y="610" as="sourcePoint" />
            <mxPoint x="1710" y="610" as="targetPoint" />
          </mxGeometry>
        </mxCell>
        <mxCell id="JqCgpAZH42IfPCFZP6Xf-3" value="" style="ellipse;whiteSpace=wrap;html=1;align=center;aspect=fixed;fillColor=none;strokeColor=none;resizable=0;perimeter=centerPerimeter;rotatable=0;allowArrows=0;points=[];outlineConnect=1;fontSize=16;" parent="1" vertex="1">
          <mxGeometry x="410" y="585" width="10" height="10" as="geometry" />
        </mxCell>
        <mxCell id="MzsrqZj2Vyv2zfBKMK9l-16" value="&amp;lt;I&amp;gt;" style="text;html=1;strokeColor=none;fillColor=default;align=center;verticalAlign=middle;whiteSpace=wrap;rounded=0;fontSize=16;fontFamily=Courier New;" parent="1" vertex="1">
          <mxGeometry x="1360.002857142857" y="700" width="51.42857142857142" height="30" as="geometry" />
        </mxCell>
        <mxCell id="ttSYWE6hKnVxcw9epCS5-1" value="&amp;lt;I&amp;gt;" style="text;html=1;strokeColor=none;fillColor=default;align=center;verticalAlign=middle;whiteSpace=wrap;rounded=0;fontSize=16;fontFamily=Courier New;" parent="1" vertex="1">
          <mxGeometry x="1105.002857142857" y="1000.0000000000001" width="51.42857142857142" height="30" as="geometry" />
        </mxCell>
        <mxCell id="ttSYWE6hKnVxcw9epCS5-3" style="edgeStyle=none;curved=1;rounded=0;orthogonalLoop=1;jettySize=auto;html=1;fontSize=12;startSize=8;endSize=8;entryX=0;entryY=0.5;entryDx=0;entryDy=0;exitX=1;exitY=0.5;exitDx=0;exitDy=0;" parent="1" source="c7AoepRtp2JlIjNg5JvS-3" target="m-WLtfDjDTpF_uiA7z5S-8" edge="1">
          <mxGeometry relative="1" as="geometry">
            <mxPoint x="835" y="1178" as="sourcePoint" />
            <mxPoint x="905" y="1274.6" as="targetPoint" />
          </mxGeometry>
        </mxCell>
        <mxCell id="ttSYWE6hKnVxcw9epCS5-4" value="uses" style="edgeLabel;html=1;align=center;verticalAlign=middle;resizable=0;points=[];fontSize=16;" parent="ttSYWE6hKnVxcw9epCS5-3" vertex="1" connectable="0">
          <mxGeometry x="-0.0501" y="-1" relative="1" as="geometry">
            <mxPoint as="offset" />
          </mxGeometry>
        </mxCell>
        <mxCell id="qZRAYoZQ3BBoxbXVwMjG-1" value="http-client" style="shape=module;align=left;spacingLeft=20;align=center;verticalAlign=top;whiteSpace=wrap;html=1;fontSize=16;fontFamily=Courier New;" parent="1" vertex="1">
          <mxGeometry x="430" y="1720" width="850" height="510" as="geometry" />
        </mxCell>
        <mxCell id="Qd4zdGmGENgGfocE7Ap7-3" value="" style="edgeStyle=none;curved=1;rounded=0;orthogonalLoop=1;jettySize=auto;html=1;fontSize=12;startSize=8;endSize=8;entryX=0.75;entryY=1;entryDx=0;entryDy=0;" parent="1" source="qZRAYoZQ3BBoxbXVwMjG-2" target="m-WLtfDjDTpF_uiA7z5S-6" edge="1">
          <mxGeometry relative="1" as="geometry" />
        </mxCell>
        <mxCell id="Qd4zdGmGENgGfocE7Ap7-4" value="provides" style="edgeLabel;html=1;align=center;verticalAlign=middle;resizable=0;points=[];fontSize=16;" parent="Qd4zdGmGENgGfocE7Ap7-3" vertex="1" connectable="0">
          <mxGeometry x="0.1395" y="3" relative="1" as="geometry">
            <mxPoint as="offset" />
          </mxGeometry>
        </mxCell>
        <mxCell id="qZRAYoZQ3BBoxbXVwMjG-2" value="&lt;p style=&quot;margin:0px;margin-top:4px;text-align:center;&quot;&gt;&lt;font face=&quot;Courier New&quot;&gt;HttpClientModule&lt;br&gt;&lt;/font&gt;&lt;/p&gt;&lt;p style=&quot;margin: 4px 0px 0px; text-align: center; font-size: 11px;&quot;&gt;&lt;font face=&quot;Courier New&quot; style=&quot;font-size: 11px;&quot;&gt;(@root)&lt;/font&gt;&lt;/p&gt;&lt;hr size=&quot;1&quot; style=&quot;font-size: 11px;&quot;&gt;&lt;p style=&quot;margin:0px;margin-left:4px;&quot;&gt;&lt;/p&gt;&lt;p style=&quot;margin:0px;margin-left:4px;&quot;&gt;&lt;br&gt;&lt;/p&gt;&lt;p style=&quot;margin:0px;margin-left:4px;&quot;&gt;&lt;br&gt;&lt;/p&gt;&lt;p style=&quot;margin:0px;margin-left:4px;&quot;&gt;&lt;span style=&quot;font-family: &amp;quot;Courier New&amp;quot;; background-color: initial;&quot;&gt;+ providesRetrofitBuilder(): Retrofit.Builder&lt;/span&gt;&lt;br&gt;&lt;/p&gt;&lt;p style=&quot;margin:0px;margin-left:4px;&quot;&gt;&lt;font face=&quot;Courier New&quot;&gt;&lt;br&gt;&lt;/font&gt;&lt;/p&gt;" style="verticalAlign=top;align=left;overflow=fill;fontSize=12;fontFamily=Helvetica;html=1;whiteSpace=wrap;fillColor=#f5f5f5;fontColor=#333333;strokeColor=#666666;" parent="1" vertex="1">
          <mxGeometry x="542.8600000000001" y="1880" width="347.14" height="290" as="geometry" />
        </mxCell>
        <mxCell id="qZRAYoZQ3BBoxbXVwMjG-3" value="&lt;span style=&quot;color: rgb(0, 0, 0); font-family: &amp;quot;Courier New&amp;quot;; font-size: 16px; font-style: normal; font-variant-ligatures: normal; font-variant-caps: normal; font-weight: 400; letter-spacing: normal; orphans: 2; text-align: center; text-indent: 0px; text-transform: none; widows: 2; word-spacing: 0px; -webkit-text-stroke-width: 0px; background-color: rgb(251, 251, 251); text-decoration-thickness: initial; text-decoration-style: initial; text-decoration-color: initial; float: none; display: inline !important;&quot;&gt;com.tibo47.httpClient&lt;/span&gt;" style="text;whiteSpace=wrap;html=1;fontSize=16;" parent="1" vertex="1">
          <mxGeometry x="455" y="1720" width="410" height="40" as="geometry" />
        </mxCell>
        <mxCell id="JZZzyyRM093N0obc8tCL-2" value="" style="rounded=0;orthogonalLoop=1;jettySize=auto;html=1;endArrow=halfCircle;endFill=0;endSize=15;strokeWidth=1;sketch=0;fontSize=12;curved=1;startSize=15;" parent="1" edge="1">
          <mxGeometry relative="1" as="geometry">
            <mxPoint x="1170" y="1089.19" as="sourcePoint" />
            <mxPoint x="1720" y="1089" as="targetPoint" />
          </mxGeometry>
        </mxCell>
        <mxCell id="ZxqrqJX_Cj1t-atZ2je_-12" value="com.tibo47.weatherPaname.weather" style="text;strokeColor=none;fillColor=none;html=1;align=center;verticalAlign=middle;whiteSpace=wrap;rounded=0;fontSize=16;fontFamily=Courier New;" parent="1" vertex="1">
          <mxGeometry x="440" y="63.4" width="340" height="35" as="geometry" />
        </mxCell>
        <mxCell id="e718NdJmbzfDfyQl3_fY-5" value="&lt;span style=&quot;color: rgb(0, 0, 0); font-family: &amp;quot;Courier New&amp;quot;; font-size: 16px; font-style: normal; font-variant-ligatures: normal; font-variant-caps: normal; font-weight: 400; letter-spacing: normal; orphans: 2; text-align: center; text-indent: 0px; text-transform: none; widows: 2; word-spacing: 0px; -webkit-text-stroke-width: 0px; background-color: rgb(251, 251, 251); text-decoration-thickness: initial; text-decoration-style: initial; text-decoration-color: initial; float: none; display: inline !important;&quot;&gt;com.tibo47.weatherPaname&lt;/span&gt;" style="text;whiteSpace=wrap;html=1;" parent="1" vertex="1">
          <mxGeometry x="1820" y="110.90000000000009" width="250" height="40" as="geometry" />
        </mxCell>
        <mxCell id="e718NdJmbzfDfyQl3_fY-6" value="" style="rounded=0;whiteSpace=wrap;html=1;fillColor=none;dashed=1;" parent="1" vertex="1">
          <mxGeometry x="1850" y="190" width="430" height="270" as="geometry" />
        </mxCell>
        <mxCell id="6FEbg_STfJtm3vOh4jgK-5" value="&lt;p style=&quot;margin:0px;margin-top:4px;text-align:center;&quot;&gt;&lt;span style=&quot;font-family: &amp;quot;Courier New&amp;quot;; background-color: initial;&quot;&gt;Color.kt&lt;/span&gt;&lt;br&gt;&lt;/p&gt;&lt;hr size=&quot;1&quot; style=&quot;font-size: 11px;&quot;&gt;&lt;p style=&quot;margin:0px;margin-left:4px;&quot;&gt;&lt;/p&gt;&lt;p style=&quot;margin:0px;margin-left:4px;&quot;&gt;&lt;br&gt;&lt;/p&gt;&lt;p style=&quot;margin:0px;margin-left:4px;&quot;&gt;&lt;br&gt;&lt;/p&gt;" style="verticalAlign=top;align=left;overflow=fill;fontSize=12;fontFamily=Helvetica;html=1;whiteSpace=wrap;fillColor=#f5f5f5;fontColor=#333333;strokeColor=#666666;" parent="1" vertex="1">
          <mxGeometry x="1910" y="260" width="110" height="110" as="geometry" />
        </mxCell>
        <mxCell id="e718NdJmbzfDfyQl3_fY-1" value="&lt;p style=&quot;margin:0px;margin-top:4px;text-align:center;&quot;&gt;&lt;span style=&quot;font-family: &amp;quot;Courier New&amp;quot;; background-color: initial;&quot;&gt;Theme.kt&lt;/span&gt;&lt;br&gt;&lt;/p&gt;&lt;hr size=&quot;1&quot; style=&quot;font-size: 11px;&quot;&gt;&lt;p style=&quot;margin:0px;margin-left:4px;&quot;&gt;&lt;/p&gt;&lt;p style=&quot;margin:0px;margin-left:4px;&quot;&gt;&lt;br&gt;&lt;/p&gt;&lt;p style=&quot;margin:0px;margin-left:4px;&quot;&gt;&lt;br&gt;&lt;/p&gt;" style="verticalAlign=top;align=left;overflow=fill;fontSize=12;fontFamily=Helvetica;html=1;whiteSpace=wrap;fillColor=#f5f5f5;fontColor=#333333;strokeColor=#666666;" parent="1" vertex="1">
          <mxGeometry x="1950" y="310.0000000000001" width="110" height="110" as="geometry" />
        </mxCell>
        <mxCell id="e718NdJmbzfDfyQl3_fY-2" value="&lt;font style=&quot;font-size: 12px;&quot;&gt;auto genere par material theme figma plugin&lt;/font&gt;" style="shape=note;strokeWidth=2;fontSize=11;size=20;whiteSpace=wrap;html=1;fillColor=#f5f5f5;strokeColor=#666666;fontFamily=Courier New;fontColor=#333333;" parent="1" vertex="1">
          <mxGeometry x="2070" y="240" width="150" height="100" as="geometry" />
        </mxCell>
        <mxCell id="e718NdJmbzfDfyQl3_fY-8" value="&lt;p style=&quot;margin:0px;margin-top:4px;text-align:center;&quot;&gt;&lt;font face=&quot;Courier New&quot;&gt;MainActivity&lt;/font&gt;&lt;/p&gt;&lt;hr size=&quot;1&quot; style=&quot;font-size: 11px;&quot;&gt;&lt;p style=&quot;margin:0px;margin-left:4px;&quot;&gt;&lt;/p&gt;&lt;p style=&quot;margin:0px;margin-left:4px;&quot;&gt;&lt;br&gt;&lt;/p&gt;&lt;p style=&quot;margin:0px;margin-left:4px;&quot;&gt;&lt;br&gt;&lt;/p&gt;" style="verticalAlign=top;align=left;overflow=fill;fontSize=12;fontFamily=Helvetica;html=1;whiteSpace=wrap;fillColor=#f5f5f5;fontColor=#333333;strokeColor=#666666;" parent="1" vertex="1">
          <mxGeometry x="1900" y="525.0000000000001" width="110" height="110" as="geometry" />
        </mxCell>
        <mxCell id="e718NdJmbzfDfyQl3_fY-7" value="&lt;div style=&quot;text-align: center;&quot;&gt;&lt;font face=&quot;Courier New&quot;&gt;&lt;span style=&quot;font-size: 16px;&quot;&gt;(.theme)&lt;/span&gt;&lt;/font&gt;&lt;/div&gt;" style="text;whiteSpace=wrap;html=1;" parent="1" vertex="1">
          <mxGeometry x="1860" y="190" width="250" height="40" as="geometry" />
        </mxCell>
        <mxCell id="e718NdJmbzfDfyQl3_fY-21" value="" style="group" parent="1" vertex="1" connectable="0">
          <mxGeometry x="1900" y="1610" width="930" height="450" as="geometry" />
        </mxCell>
        <mxCell id="5DD99luaPqPGxmcdbhe--15" value="weather" style="shape=module;align=left;spacingLeft=20;align=center;verticalAlign=top;whiteSpace=wrap;html=1;fontSize=16;fontFamily=Courier New;" parent="e718NdJmbzfDfyQl3_fY-21" vertex="1">
          <mxGeometry width="930" height="450" as="geometry" />
        </mxCell>
        <mxCell id="5DD99luaPqPGxmcdbhe--1" value="com.tibo47.weatherPaname.hilt" style="text;strokeColor=none;fillColor=none;html=1;align=center;verticalAlign=middle;whiteSpace=wrap;rounded=0;fontSize=16;fontFamily=Courier New;" parent="e718NdJmbzfDfyQl3_fY-21" vertex="1">
          <mxGeometry x="30" y="10" width="300" height="30" as="geometry" />
        </mxCell>
        <mxCell id="5DD99luaPqPGxmcdbhe--16" value="&lt;p style=&quot;margin:0px;margin-top:4px;text-align:center;&quot;&gt;&lt;font face=&quot;Courier New&quot;&gt;DispatcherModule&lt;br&gt;&lt;/font&gt;&lt;/p&gt;&lt;p style=&quot;margin: 4px 0px 0px; text-align: center; font-size: 11px;&quot;&gt;&lt;font face=&quot;Courier New&quot; style=&quot;font-size: 11px;&quot;&gt;(.dispatcher)&lt;/font&gt;&lt;/p&gt;&lt;hr size=&quot;1&quot; style=&quot;font-size: 11px;&quot;&gt;&lt;p style=&quot;margin:0px;margin-left:4px;&quot;&gt;&lt;/p&gt;&lt;p style=&quot;margin:0px;margin-left:4px;&quot;&gt;&lt;br&gt;&lt;/p&gt;&lt;p style=&quot;margin:0px;margin-left:4px;&quot;&gt;&lt;font face=&quot;Courier New&quot;&gt;@Dispatcher(Default)&lt;/font&gt;&lt;/p&gt;&lt;p style=&quot;margin:0px;margin-left:4px;&quot;&gt;&lt;span style=&quot;font-family: &amp;quot;Courier New&amp;quot;; background-color: initial;&quot;&gt;+ providesDispatcherDefault(): CoroutineDispatcher&lt;/span&gt;&lt;br&gt;&lt;/p&gt;&lt;p style=&quot;margin:0px;margin-left:4px;&quot;&gt;&lt;span style=&quot;font-family: &amp;quot;Courier New&amp;quot;; background-color: initial;&quot;&gt;&lt;br&gt;&lt;/span&gt;&lt;/p&gt;&lt;p style=&quot;margin:0px;margin-left:4px;&quot;&gt;&lt;span style=&quot;font-family: &amp;quot;Courier New&amp;quot;; background-color: initial;&quot;&gt;&lt;br&gt;&lt;/span&gt;&lt;/p&gt;&lt;p style=&quot;border-color: var(--border-color); margin: 0px 0px 0px 4px;&quot;&gt;&lt;font style=&quot;border-color: var(--border-color);&quot; face=&quot;Courier New&quot;&gt;@Dispatcher(IO)&lt;/font&gt;&lt;/p&gt;&lt;p style=&quot;border-color: var(--border-color); margin: 0px 0px 0px 4px;&quot;&gt;&lt;font face=&quot;Courier New&quot;&gt;+providesDispatcherIO(): CoroutineDispatcher&lt;/font&gt;&lt;/p&gt;&lt;p style=&quot;border-color: var(--border-color); margin: 0px 0px 0px 4px;&quot;&gt;&lt;br&gt;&lt;/p&gt;" style="verticalAlign=top;align=left;overflow=fill;fontSize=12;fontFamily=Helvetica;html=1;whiteSpace=wrap;fillColor=#f5f5f5;fontColor=#333333;strokeColor=#666666;" parent="e718NdJmbzfDfyQl3_fY-21" vertex="1">
          <mxGeometry x="60.000000000000114" y="90" width="347.14" height="290" as="geometry" />
        </mxCell>
        <mxCell id="e718NdJmbzfDfyQl3_fY-22" value="" style="group" parent="1" vertex="1" connectable="0">
          <mxGeometry x="3730" y="120" width="2200" height="800" as="geometry" />
        </mxCell>
        <mxCell id="9uqEFR3WwEUxAwHJzLDd-3" value="weekly-weather-ui" style="shape=module;align=left;spacingLeft=20;align=center;verticalAlign=top;whiteSpace=wrap;html=1;fontSize=16;fontFamily=Courier New;" parent="e718NdJmbzfDfyQl3_fY-22" vertex="1">
          <mxGeometry width="2200" height="800" as="geometry" />
        </mxCell>
        <mxCell id="6FEbg_STfJtm3vOh4jgK-3" value="&lt;span style=&quot;color: rgb(0, 0, 0); font-family: &amp;quot;Courier New&amp;quot;; font-size: 16px; font-style: normal; font-variant-ligatures: normal; font-variant-caps: normal; font-weight: 400; letter-spacing: normal; orphans: 2; text-align: center; text-indent: 0px; text-transform: none; widows: 2; word-spacing: 0px; -webkit-text-stroke-width: 0px; background-color: rgb(251, 251, 251); text-decoration-thickness: initial; text-decoration-style: initial; text-decoration-color: initial; float: none; display: inline !important;&quot;&gt;com.tibo47.weatherPaname.weeklyWeatherUi&lt;/span&gt;" style="text;whiteSpace=wrap;html=1;" parent="e718NdJmbzfDfyQl3_fY-22" vertex="1">
          <mxGeometry x="60" y="10" width="450" height="40" as="geometry" />
        </mxCell>
        <mxCell id="e718NdJmbzfDfyQl3_fY-23" value="" style="rounded=0;whiteSpace=wrap;html=1;fillColor=none;dashed=1;" parent="e718NdJmbzfDfyQl3_fY-22" vertex="1">
          <mxGeometry x="750" y="110.00000000000011" width="330" height="520" as="geometry" />
        </mxCell>
        <mxCell id="e718NdJmbzfDfyQl3_fY-24" value="" style="group" parent="e718NdJmbzfDfyQl3_fY-22" vertex="1" connectable="0">
          <mxGeometry x="770" y="170.0000000000001" width="200" height="160" as="geometry" />
        </mxCell>
        <mxCell id="e718NdJmbzfDfyQl3_fY-25" value="&lt;p style=&quot;margin:0px;margin-top:4px;text-align:center;&quot;&gt;&lt;font face=&quot;Courier New&quot;&gt;WeeklyWeatherScreen&lt;/font&gt;&lt;/p&gt;&lt;hr size=&quot;1&quot; style=&quot;font-size: 11px;&quot;&gt;&lt;p style=&quot;margin:0px;margin-left:4px;&quot;&gt;&lt;/p&gt;&lt;p style=&quot;margin:0px;margin-left:4px;&quot;&gt;&lt;br&gt;&lt;/p&gt;" style="verticalAlign=top;align=left;overflow=fill;fontSize=12;fontFamily=Helvetica;html=1;whiteSpace=wrap;fillColor=#f5f5f5;fontColor=#333333;strokeColor=#666666;" parent="e718NdJmbzfDfyQl3_fY-24" vertex="1">
          <mxGeometry x="30.76923076923077" y="13.333333333333332" width="169.23076923076923" height="146.66666666666666" as="geometry" />
        </mxCell>
        <mxCell id="e718NdJmbzfDfyQl3_fY-26" value="&lt;font style=&quot;font-size: 11px; background-color: rgb(255, 242, 204);&quot;&gt;Comp()&lt;/font&gt;" style="text;html=1;strokeColor=none;fillColor=none;align=center;verticalAlign=middle;whiteSpace=wrap;rounded=0;fontSize=16;fontFamily=Courier New;" parent="e718NdJmbzfDfyQl3_fY-24" vertex="1">
          <mxGeometry x="-15.384615384615385" width="92.30769230769232" height="26.666666666666664" as="geometry" />
        </mxCell>
        <mxCell id="e718NdJmbzfDfyQl3_fY-27" value="&lt;div style=&quot;text-align: center;&quot;&gt;&lt;font face=&quot;Courier New&quot;&gt;&lt;span style=&quot;font-size: 16px;&quot;&gt;(.ui)&lt;/span&gt;&lt;/font&gt;&lt;/div&gt;" style="text;whiteSpace=wrap;html=1;" parent="e718NdJmbzfDfyQl3_fY-22" vertex="1">
          <mxGeometry x="750" y="110.00000000000011" width="250" height="40" as="geometry" />
        </mxCell>
        <mxCell id="id-SzQNBwmyBz2DZZ97J-8" value="" style="group" parent="e718NdJmbzfDfyQl3_fY-22" vertex="1" connectable="0">
          <mxGeometry x="50" y="110" width="470" height="520" as="geometry" />
        </mxCell>
        <mxCell id="id-SzQNBwmyBz2DZZ97J-9" value="" style="rounded=0;whiteSpace=wrap;html=1;fillColor=none;dashed=1;" parent="id-SzQNBwmyBz2DZZ97J-8" vertex="1">
          <mxGeometry width="470" height="520" as="geometry" />
        </mxCell>
        <mxCell id="id-SzQNBwmyBz2DZZ97J-10" value="&lt;div style=&quot;text-align: center;&quot;&gt;&lt;font face=&quot;Courier New&quot;&gt;&lt;span style=&quot;font-size: 16px;&quot;&gt;(.navigation)&lt;/span&gt;&lt;/font&gt;&lt;/div&gt;" style="text;whiteSpace=wrap;html=1;" parent="id-SzQNBwmyBz2DZZ97J-8" vertex="1">
          <mxGeometry width="152.5974025974026" height="40" as="geometry" />
        </mxCell>
        <mxCell id="id-SzQNBwmyBz2DZZ97J-11" value="" style="group" parent="id-SzQNBwmyBz2DZZ97J-8" vertex="1" connectable="0">
          <mxGeometry x="3.05" y="35" width="436.95" height="195" as="geometry" />
        </mxCell>
        <mxCell id="id-SzQNBwmyBz2DZZ97J-12" value="&lt;p style=&quot;margin:0px;margin-top:4px;text-align:center;&quot;&gt;&lt;span style=&quot;font-family: &amp;quot;Courier New&amp;quot;;&quot;&gt;WeeklyWeatherNavigation.kt&lt;/span&gt;&lt;br&gt;&lt;/p&gt;&lt;hr size=&quot;1&quot; style=&quot;font-size: 11px;&quot;&gt;&lt;p style=&quot;margin:0px;margin-left:4px;&quot;&gt;&lt;/p&gt;&lt;p style=&quot;margin:0px;margin-left:4px;&quot;&gt;&lt;font face=&quot;Courier New&quot;&gt;NavGraphBuilder.weeklyWeatherScreen&lt;/font&gt;&lt;/p&gt;&lt;p style=&quot;margin:0px;margin-left:4px;&quot;&gt;&lt;br&gt;&lt;/p&gt;" style="verticalAlign=top;align=left;overflow=fill;fontSize=12;fontFamily=Helvetica;html=1;whiteSpace=wrap;fillColor=#f5f5f5;fontColor=#333333;strokeColor=#666666;" parent="id-SzQNBwmyBz2DZZ97J-11" vertex="1">
          <mxGeometry x="67.22" y="16.25" width="282.78" height="178.75" as="geometry" />
        </mxCell>
        <mxCell id="id-SzQNBwmyBz2DZZ97J-15" style="edgeStyle=none;curved=1;rounded=0;orthogonalLoop=1;jettySize=auto;html=1;exitX=1;exitY=0.5;exitDx=0;exitDy=0;fontSize=12;startSize=8;endSize=8;" parent="id-SzQNBwmyBz2DZZ97J-11" source="id-SzQNBwmyBz2DZZ97J-12" target="id-SzQNBwmyBz2DZZ97J-12" edge="1">
          <mxGeometry relative="1" as="geometry" />
        </mxCell>
        <mxCell id="id-SzQNBwmyBz2DZZ97J-2" value="" style="group" parent="1" vertex="1" connectable="0">
          <mxGeometry x="2550" y="570" width="470" height="520" as="geometry" />
        </mxCell>
        <mxCell id="id-SzQNBwmyBz2DZZ97J-3" value="" style="rounded=0;whiteSpace=wrap;html=1;fillColor=none;dashed=1;" parent="id-SzQNBwmyBz2DZZ97J-2" vertex="1">
          <mxGeometry width="470" height="520" as="geometry" />
        </mxCell>
        <mxCell id="id-SzQNBwmyBz2DZZ97J-4" value="&lt;div style=&quot;text-align: center;&quot;&gt;&lt;font face=&quot;Courier New&quot;&gt;&lt;span style=&quot;font-size: 16px;&quot;&gt;(.navigation)&lt;/span&gt;&lt;/font&gt;&lt;/div&gt;" style="text;whiteSpace=wrap;html=1;" parent="id-SzQNBwmyBz2DZZ97J-2" vertex="1">
          <mxGeometry width="152.5974025974026" height="40" as="geometry" />
        </mxCell>
        <mxCell id="id-SzQNBwmyBz2DZZ97J-5" value="" style="group" parent="id-SzQNBwmyBz2DZZ97J-2" vertex="1" connectable="0">
          <mxGeometry x="3.05" y="35" width="436.95" height="195" as="geometry" />
        </mxCell>
        <mxCell id="id-SzQNBwmyBz2DZZ97J-6" value="&lt;p style=&quot;margin:0px;margin-top:4px;text-align:center;&quot;&gt;&lt;font face=&quot;Courier New&quot;&gt;MainNavHost&lt;/font&gt;&lt;/p&gt;&lt;hr size=&quot;1&quot; style=&quot;font-size: 11px;&quot;&gt;&lt;p style=&quot;margin:0px;margin-left:4px;&quot;&gt;&lt;/p&gt;&lt;p style=&quot;margin:0px;margin-left:4px;&quot;&gt;&lt;font face=&quot;Courier New&quot;&gt;NavHost(startDestination=WEEKLY_WEATHER_ROUTE)&lt;/font&gt;&lt;/p&gt;&lt;p style=&quot;margin:0px;margin-left:4px;&quot;&gt;&lt;br&gt;&lt;/p&gt;" style="verticalAlign=top;align=left;overflow=fill;fontSize=12;fontFamily=Helvetica;html=1;whiteSpace=wrap;fillColor=#f5f5f5;fontColor=#333333;strokeColor=#666666;" parent="id-SzQNBwmyBz2DZZ97J-5" vertex="1">
          <mxGeometry x="67.22307692307692" y="16.249999999999996" width="369.7269230769231" height="178.74999999999997" as="geometry" />
        </mxCell>
        <mxCell id="id-SzQNBwmyBz2DZZ97J-7" value="&lt;font style=&quot;font-size: 11px; background-color: rgb(255, 242, 204);&quot;&gt;Comp()&lt;/font&gt;" style="text;html=1;strokeColor=none;fillColor=none;align=center;verticalAlign=middle;whiteSpace=wrap;rounded=0;fontSize=16;fontFamily=Courier New;" parent="id-SzQNBwmyBz2DZZ97J-5" vertex="1">
          <mxGeometry x="-33.61153846153846" width="201.66923076923075" height="32.49999999999999" as="geometry" />
        </mxCell>
        <mxCell id="e718NdJmbzfDfyQl3_fY-9" value="" style="rounded=0;whiteSpace=wrap;html=1;fillColor=none;dashed=1;" parent="1" vertex="1">
          <mxGeometry x="2110" y="570.0000000000001" width="330" height="520" as="geometry" />
        </mxCell>
        <mxCell id="e718NdJmbzfDfyQl3_fY-20" value="&lt;div style=&quot;text-align: center;&quot;&gt;&lt;font face=&quot;Courier New&quot;&gt;&lt;span style=&quot;font-size: 16px;&quot;&gt;(.ui)&lt;/span&gt;&lt;/font&gt;&lt;/div&gt;" style="text;whiteSpace=wrap;html=1;" parent="1" vertex="1">
          <mxGeometry x="2135" y="590.0000000000001" width="250" height="40" as="geometry" />
        </mxCell>
        <mxCell id="e718NdJmbzfDfyQl3_fY-18" value="" style="group" parent="1" vertex="1" connectable="0">
          <mxGeometry x="2160" y="645.0000000000001" width="200" height="160" as="geometry" />
        </mxCell>
        <mxCell id="e718NdJmbzfDfyQl3_fY-16" value="&lt;p style=&quot;margin:0px;margin-top:4px;text-align:center;&quot;&gt;&lt;font face=&quot;Courier New&quot;&gt;MainApplicationScreen&lt;/font&gt;&lt;/p&gt;&lt;hr size=&quot;1&quot; style=&quot;font-size: 11px;&quot;&gt;&lt;p style=&quot;margin:0px;margin-left:4px;&quot;&gt;&lt;/p&gt;&lt;p style=&quot;margin:0px;margin-left:4px;&quot;&gt;&lt;br&gt;&lt;/p&gt;&lt;p style=&quot;margin:0px;margin-left:4px;&quot;&gt;&lt;br&gt;&lt;/p&gt;" style="verticalAlign=top;align=left;overflow=fill;fontSize=12;fontFamily=Helvetica;html=1;whiteSpace=wrap;fillColor=#f5f5f5;fontColor=#333333;strokeColor=#666666;" parent="e718NdJmbzfDfyQl3_fY-18" vertex="1">
          <mxGeometry x="30.76923076923077" y="13.333333333333332" width="169.23076923076923" height="146.66666666666666" as="geometry" />
        </mxCell>
        <mxCell id="e718NdJmbzfDfyQl3_fY-17" value="&lt;font style=&quot;font-size: 11px; background-color: rgb(255, 242, 204);&quot;&gt;Comp()&lt;/font&gt;" style="text;html=1;strokeColor=none;fillColor=none;align=center;verticalAlign=middle;whiteSpace=wrap;rounded=0;fontSize=16;fontFamily=Courier New;" parent="e718NdJmbzfDfyQl3_fY-18" vertex="1">
          <mxGeometry x="-15.384615384615385" width="92.30769230769232" height="26.666666666666664" as="geometry" />
        </mxCell>
        <mxCell id="JXX1QI5AWaRHTP2sCYmO-1" value="" style="group" parent="1" vertex="1" connectable="0">
          <mxGeometry x="910" y="170" width="270" height="60" as="geometry" />
        </mxCell>
        <mxCell id="JXX1QI5AWaRHTP2sCYmO-2" value="" style="rounded=0;whiteSpace=wrap;html=1;fontSize=16;fillColor=#f8cecc;strokeColor=#b85450;" parent="JXX1QI5AWaRHTP2sCYmO-1" vertex="1">
          <mxGeometry width="270" height="60" as="geometry" />
        </mxCell>
        <mxCell id="JXX1QI5AWaRHTP2sCYmO-3" value="DailyWeatherEntity" style="text;html=1;strokeColor=none;fillColor=none;align=center;verticalAlign=middle;whiteSpace=wrap;rounded=0;fontSize=16;fontFamily=Courier New;" parent="JXX1QI5AWaRHTP2sCYmO-1" vertex="1">
          <mxGeometry x="67.5" width="135" height="30" as="geometry" />
        </mxCell>
        <mxCell id="JXX1QI5AWaRHTP2sCYmO-4" value="" style="group;fontSize=16;fillColor=#f8cecc;strokeColor=none;strokeWidth=0;" parent="1" vertex="1" connectable="0">
          <mxGeometry x="925" y="290" width="240" height="120" as="geometry" />
        </mxCell>
        <mxCell id="JXX1QI5AWaRHTP2sCYmO-5" value="" style="rounded=0;whiteSpace=wrap;html=1;fontSize=16;fillColor=#f8cecc;strokeColor=#b85450;" parent="JXX1QI5AWaRHTP2sCYmO-4" vertex="1">
          <mxGeometry width="201.42857142857144" height="120" as="geometry" />
        </mxCell>
        <mxCell id="JXX1QI5AWaRHTP2sCYmO-6" value="&lt;p style=&quot;border-color: var(--border-color); font-family: Helvetica; font-size: 12px; margin: 4px 0px 0px;&quot;&gt;&lt;font style=&quot;border-color: var(--border-color);&quot; face=&quot;Courier New&quot;&gt;DailyWeather&lt;/font&gt;&lt;/p&gt;&lt;hr style=&quot;border-color: var(--border-color); font-family: Helvetica; text-align: left; font-size: 11px;&quot; size=&quot;1&quot;&gt;&lt;p style=&quot;border-color: var(--border-color); font-family: Helvetica; font-size: 12px; text-align: left; margin: 0px 0px 0px 4px;&quot;&gt;&lt;/p&gt;&lt;p style=&quot;border-color: var(--border-color); text-align: left; margin: 0px 0px 0px 4px;&quot;&gt;&lt;span style=&quot;font-size: 12px;&quot;&gt;+ timestamp: Instant&lt;/span&gt;&lt;/p&gt;&lt;p style=&quot;border-color: var(--border-color); text-align: left; margin: 0px 0px 0px 4px;&quot;&gt;&lt;span style=&quot;font-size: 12px;&quot;&gt;+ hourlies: Map&amp;lt;HourlySegment, HourlyWeather&amp;gt;&lt;/span&gt;&lt;/p&gt;" style="text;html=1;strokeColor=#b85450;fillColor=#f8cecc;align=center;verticalAlign=middle;whiteSpace=wrap;rounded=0;fontSize=16;fontFamily=Courier New;" parent="JXX1QI5AWaRHTP2sCYmO-4" vertex="1">
          <mxGeometry width="240" height="120" as="geometry" />
        </mxCell>
        <mxCell id="JXX1QI5AWaRHTP2sCYmO-7" value="&amp;lt;I&amp;gt;" style="text;html=1;strokeColor=none;fillColor=default;align=center;verticalAlign=middle;whiteSpace=wrap;rounded=0;fontSize=16;fontFamily=Courier New;" parent="JXX1QI5AWaRHTP2sCYmO-4" vertex="1">
          <mxGeometry x="185.005" y="-20" width="43.16446428571429" height="40" as="geometry" />
        </mxCell>
        <mxCell id="JXX1QI5AWaRHTP2sCYmO-8" value="" style="edgeStyle=none;curved=1;rounded=0;orthogonalLoop=1;jettySize=auto;html=1;fontSize=12;endArrow=block;endFill=0;" parent="1" source="JXX1QI5AWaRHTP2sCYmO-2" target="JXX1QI5AWaRHTP2sCYmO-6" edge="1">
          <mxGeometry relative="1" as="geometry" />
        </mxCell>
        <mxCell id="JXX1QI5AWaRHTP2sCYmO-12" value="&lt;p style=&quot;margin:0px;margin-top:4px;text-align:center;&quot;&gt;&lt;i&gt;&amp;lt;&amp;lt;Enumeration&amp;gt;&amp;gt;&lt;/i&gt;&lt;br&gt;HourlySegment&lt;br&gt;&lt;/p&gt;&lt;hr size=&quot;1&quot;&gt;&lt;p style=&quot;margin:0px;margin-left:4px;&quot;&gt;Day,&lt;/p&gt;&lt;p style=&quot;margin:0px;margin-left:4px;&quot;&gt;Night,&lt;/p&gt;&lt;p style=&quot;margin:0px;margin-left:4px;&quot;&gt;Eve,&lt;/p&gt;&lt;p style=&quot;margin:0px;margin-left:4px;&quot;&gt;Morning,&lt;/p&gt;&lt;p style=&quot;margin:0px;margin-left:4px;&quot;&gt;&lt;br&gt;&lt;/p&gt;" style="verticalAlign=top;align=left;overflow=fill;fontSize=12;fontFamily=Courier New;html=1;whiteSpace=wrap;fillColor=#f8cecc;strokeColor=#b85450;" parent="1" vertex="1">
          <mxGeometry x="1221.43" y="320" width="158.57" height="130" as="geometry" />
        </mxCell>
      </root>
    </mxGraphModel>
  </diagram>
</mxfile>
